<?xml version="1.0" encoding="UTF-8"?>
<svg width="44px" height="44px" viewBox="0 0 44 44" version="1.1" xmlns="http://www.w3.org/2000/svg" xmlns:xlink="http://www.w3.org/1999/xlink">
    <!-- Generator: Sketch 60 (88103) - https://sketch.com -->
    <title>dribble</title>
    <desc>Created with Sketch.</desc>
    <g id="dribble" stroke="none" stroke-width="1" fill="none" fill-rule="evenodd">
        <g fill="#FFFFFF" id="Shape">
            <path d="M43.5524196,17.5725792 C43.2652437,16.1575636 42.8305992,14.7658299 42.2691833,13.4361808 C41.7207032,12.1324005 41.0351032,10.8751837 40.240842,9.70074666 C39.4543423,8.53665706 38.55142,7.43982597 37.5579467,6.44646952 C36.5618863,5.45052619 35.4675134,4.54771004 34.3006997,3.76130284 C33.1261245,2.96454818 31.8687599,2.28420248 30.5648262,1.7306132 C29.2350209,1.1718502 27.8431234,0.734669881 26.4305286,0.450114645 C24.9817134,0.152625081 23.4915035,0 22.0012936,0 C20.5084965,0 19.0182866,0.152625081 17.5694714,0.450114645 C16.1568766,0.734669881 14.7649791,1.1718502 13.4351738,1.7306132 C12.1312401,2.28420248 10.8738755,2.96454818 9.69671312,3.76130284 C8.53248662,4.54771004 7.43811372,5.45052619 6.44205327,6.44646952 C5.44599283,7.43982597 4.54565767,8.53665706 3.75915799,9.70074666 C2.96230964,10.8751837 2.27929676,12.1324005 1.72822955,13.4361808 C1.16681366,14.7658299 0.734756277,16.1575636 0.444993238,17.5725792 C0.150055859,19.0160503 0,20.5086719 0,21.9987066 C0,23.4913281 0.150055859,24.9839497 0.444993238,26.4325945 C0.734756277,27.8424364 1.16681366,29.236757 1.72822955,30.5638192 C2.27929676,31.8675995 2.96230964,33.1274031 3.75915799,34.3044271 C4.54565767,35.4685167 5.44599283,36.560174 6.44205327,37.5561173 C7.43811372,38.5520607 8.53248662,39.45229 9.69671312,40.2386972 C10.8738755,41.0354518 12.1312401,41.7183844 13.4351738,42.2693868 C14.7649791,42.8307367 16.1568766,43.2601564 17.5694714,43.5498854 C19.0182866,43.8499618 20.5084965,44 22.0012936,44 C23.4915035,44 24.9817134,43.8499618 26.4305286,43.5498854 C27.8431234,43.2601564 29.2350209,42.8307367 30.5648262,42.2693868 C31.8687599,41.7183844 33.1261245,41.0354518 34.3006997,40.2386972 C35.4675134,39.45229 36.5618863,38.5520607 37.5579467,37.5561173 C38.55142,36.560174 39.4543423,35.4685167 40.240842,34.3044271 C41.0351032,33.1274031 41.7207032,31.8675995 42.2691833,30.5638192 C42.8305992,29.236757 43.2652437,27.8424364 43.5524196,26.4325945 C43.8499441,24.9839497 44,23.4913281 44,21.9987066 C44,20.5086719 43.8499441,19.0160503 43.5524196,17.5725792 L43.5524196,17.5725792 Z M40.7841477,21.8124522 C40.5124949,21.7529543 34.153231,20.3845023 27.6982419,21.1967782 C27.5637091,20.8760068 27.4291762,20.5526486 27.2920562,20.2292904 C26.8988064,19.3083662 26.4796848,18.3977894 26.0424531,17.5027338 C33.4624566,14.473514 36.4739225,10.1172321 36.5101429,10.0654947 C39.1438819,13.2680346 40.7401658,17.3552825 40.7841477,21.8124522 L40.7841477,21.8124522 Z M34.4093609,7.90028808 C34.3627918,7.97272032 31.687658,12.0470339 24.5936379,14.7037451 C21.38296,8.80310424 17.8540601,4.11570345 17.5720586,3.74319478 C18.9924149,3.39914163 20.4748633,3.21288729 22.0012936,3.21288729 C26.756512,3.21288729 31.0977833,4.98747722 34.4093609,7.90028808 L34.4093609,7.90028808 Z M17.4996178,3.75871597 C17.4996178,3.76130284 17.4970306,3.76130284 17.4970306,3.76130284 C17.4970306,3.76130284 17.4737461,3.76647657 17.4401129,3.77423717 C17.4582231,3.76906344 17.4789204,3.76647657 17.4996178,3.75871597 L17.4996178,3.75871597 Z M13.9836538,5.00817214 C14.2320221,5.3444647 17.7091786,10.0525604 20.9612512,15.8342054 C11.9397895,18.23223 4.10842594,18.136516 3.6116893,18.1287554 C4.83283354,12.3083074 8.74204739,7.48380269 13.9836538,5.00817214 L13.9836538,5.00817214 Z M3.21067796,21.9987066 C3.21067796,21.7995179 3.22102664,21.6029161 3.22620098,21.4063143 C3.55735873,21.4140749 12.8427118,21.623611 22.5161404,18.7289082 C23.0542718,19.7817626 23.5691186,20.852725 24.0399835,21.9211006 C23.7916152,21.990946 23.5458341,22.0659651 23.3000529,22.1461579 C13.1609337,25.4237169 8.0176398,34.5450056 8.0176398,34.5450056 C8.0176398,34.5450056 8.02540131,34.5527662 8.02540131,34.555353 C5.03204563,31.2260568 3.21067796,26.8257981 3.21067796,21.9987066 L3.21067796,21.9987066 Z M22.0012936,40.7871127 C17.4530487,40.7871127 13.2825307,39.1703216 10.030458,36.4825681 C10.2788264,36.6817567 10.4521668,36.8111 10.4521668,36.8111 C10.4521668,36.8111 14.0535074,28.9573755 25.1964485,25.07449 C25.2378432,25.0589688 25.279238,25.0460345 25.3232199,25.0331001 C27.9673076,31.9038156 29.0565061,37.6570051 29.3359205,39.2996649 C27.0824954,40.2568052 24.6013994,40.7871127 22.0012936,40.7871127 L22.0012936,40.7871127 Z M32.5000294,37.581986 C32.3085788,36.4489388 31.307344,30.933741 28.841771,24.1639132 C34.9086847,23.1938386 40.1632269,24.8571933 40.5513024,24.9839497 C39.7156465,30.2171791 36.7171165,34.7338468 32.5000294,37.581986 L32.5000294,37.581986 Z"></path>
        </g>
    </g>
</svg>