<?xml version="1.0" encoding="UTF-8"?>
<svg width="44px" height="44px" viewBox="0 0 44 44" version="1.1" xmlns="http://www.w3.org/2000/svg" xmlns:xlink="http://www.w3.org/1999/xlink">
    <!-- Generator: Sketch 60 (88103) - https://sketch.com -->
    <title>github</title>
    <desc>Created with Sketch.</desc>
    <g id="github" stroke="none" stroke-width="1" fill="none" fill-rule="evenodd">
        <g fill="#FFFFFF" id="Shape">
            <path d="M0,22.5581287 C0,32.5230332 6.30307867,40.9785233 15.0452746,43.9613477 C16.1459836,44.1690653 16.5471009,43.472519 16.5471009,42.8742924 C16.5471009,42.338381 16.528193,40.9203624 16.5173885,39.0384411 C10.3979864,40.4010684 9.10684797,36.0140732 9.10684797,36.0140732 C8.1060806,33.4079101 6.66367906,32.7141334 6.66367906,32.7141334 C4.66619602,31.3141169 6.81494214,31.3431974 6.81494214,31.3431974 C9.02311305,31.5024475 10.1845974,33.6682494 10.1845974,33.6682494 C12.1483164,37.1149764 15.3342951,36.1193168 16.5876178,35.5418619 C16.7875012,34.0836846 17.3560883,33.0907946 17.9841002,32.5258028 C13.0991129,31.9566566 7.9629209,30.0221136 7.9629209,21.3782929 C7.9629209,18.9147624 8.82052856,16.9012867 10.2278155,15.3240179 C10.0022714,14.753487 9.24730655,12.460285 10.4439056,9.3555996 C10.4439056,9.3555996 12.2914761,8.7476795 16.4930784,11.6668038 C18.2488106,11.1668969 20.1301452,10.916251 22.0006753,10.9079423 C23.8698548,10.916251 25.7511894,11.1668969 27.5096228,11.6668038 C31.7085239,8.7476795 33.5533933,9.3555996 33.5533933,9.3555996 C34.7526935,12.460285 33.9977286,14.753487 33.7721845,15.3240179 C35.1821726,16.9012867 36.0330274,18.9147624 36.0330274,21.3782929 C36.0330274,30.0428853 30.8900826,31.9497327 25.9888885,32.5091853 C26.778968,33.2057316 27.4812609,34.5822067 27.4812609,36.6856934 C27.4812609,39.7017526 27.4556002,42.1348178 27.4556002,42.8742924 C27.4556002,43.4780581 27.8513153,44.1787587 28.9682311,43.9585781 C37.7023236,40.9702146 44,32.5216484 44,22.5581287 C44,10.0992285 34.1489917,0 21.9979742,0 C9.85100832,0 0,10.0992285 0,22.5581287 Z"></path>
        </g>
    </g>
</svg>