<?xml version="1.0" encoding="UTF-8"?>
<svg width="44px" height="44px" viewBox="0 0 44 44" version="1.1" xmlns="http://www.w3.org/2000/svg" xmlns:xlink="http://www.w3.org/1999/xlink">
    <!-- Generator: Sketch 60 (88103) - https://sketch.com -->
    <title>linkedin</title>
    <desc>Created with Sketch.</desc>
    <g id="linkedin" stroke="none" stroke-width="1" fill="none" fill-rule="evenodd">
        <g transform="translate(1.000000, 1.000000)" fill="#FFFFFF" id="Shape">
            <path d="M1.05938382,13.4675375 L9.24553151,13.4675375 L9.24553151,41.9973108 L1.05938382,41.9973108 L1.05938382,13.4675375 Z M4.94379116,9.89896274 L4.88452493,9.89896274 C1.92121355,9.89896274 -3.55271368e-15,7.71801767 -3.55271368e-15,4.95620438 C-3.55271368e-15,2.13791779 1.97801035,0 5.00058796,0 C8.02069614,0 9.87770461,2.13253938 9.93697084,4.94813677 C9.93697084,7.70995006 8.02069614,9.89896274 4.94379116,9.89896274 L4.94379116,9.89896274 Z M42,42 L32.7174271,42 L32.7174271,27.2335766 C32.7174271,23.3691894 31.2654045,20.7337687 28.0724365,20.7337687 C25.630174,20.7337687 24.2719897,22.5113331 23.6398166,24.2297349 C23.4027516,24.8428736 23.439793,25.7007299 23.439793,26.5612755 L23.439793,42 L14.24365,42 C14.24365,42 14.3621825,15.8447945 14.24365,13.4675375 L23.439793,13.4675375 L23.439793,17.9450634 C23.9830668,15.9873223 26.9216839,13.1932386 31.6111242,13.1932386 C37.4290922,13.1932386 42,17.2996542 42,26.1336919 L42,42 L42,42 Z"></path>
        </g>
    </g>
</svg>