<?xml version="1.0" encoding="UTF-8"?>
<svg width="44px" height="44px" viewBox="0 0 44 44" version="1.1" xmlns="http://www.w3.org/2000/svg" xmlns:xlink="http://www.w3.org/1999/xlink">
    <!-- Generator: Sketch 60 (88103) - https://sketch.com -->
    <title>Mail</title>
    <desc>Created with Sketch.</desc>
    <g id="Mail" stroke="none" stroke-width="1" fill="none" fill-rule="evenodd">
        <g id="Mail-Icon" transform="translate(0.000000, 0.000000)">
            <path d="M42.442471,5 L43.376312,5.09751182 L43.5978963,5.1975704 L43.750985,5.21355594 L43.9339028,5.38649768 L43.9363979,5.44829479 L43.9210248,5.5082261 L44,5.63954585 L43.9901922,5.68467415 L43.9903415,5.73084216 L43.9452685,6.15689164 L43.9377255,6.27917714 L43.9195126,6.40034848 L43.9001956,6.58294112 L33.234775,34.6837438 C33.0466939,35.1766708 32.6165542,35.5386624 32.0963984,35.6417643 C31.943927,35.6811343 31.7852148,35.6906858 31.6290836,35.669888 C31.3371785,35.6394298 31.0617163,35.5268697 30.8339933,35.3475573 L30.6726412,35.2007967 L25.200351,29.429539 L16.8969196,39.5929239 L16.7954079,39.6746289 L16.6814983,39.7836541 L16.5569375,39.8804899 L16.4344665,39.8677015 C16.378116,39.9024115 16.3180212,39.930487 16.2554007,39.9514412 L16.159728,39.9774705 L16.0219482,39.9630835 C15.930092,39.9853062 15.8362395,39.9976537 15.7420025,40 L15.60056,39.9960028 L15.2637649,39.9608346 L15.103307,39.9165663 L14.9503274,39.8511847 L14.7899786,39.7575204 L14.6368899,39.7415348 L14.3903058,39.4388719 L14.2976314,39.2907375 C14.2542577,39.2042324 14.2207904,39.1133264 14.1977537,39.0197314 L14.1710873,38.8775361 L14.1823556,38.7710237 L13.1531661,21.7256142 L1.02900589,17.3827789 C0.381515107,17.1566858 -0.0371305053,16.5318489 0.00260202993,15.8508506 C0.0387225165,15.2317613 0.445734716,14.7022293 1.02240744,14.498138 L1.20029784,14.4469098 L42.442471,5 Z M32.6006326,12.5874338 L22.2243334,17.7652852 L15.8498278,20.9610783 L16.7913756,32.3975082 L20.740812,23.3025086 L20.8060952,23.1396062 C20.8570233,23.0345476 20.9224461,22.9370478 21.0004606,22.8499429 L21.1266882,22.7274361 L32.6006326,12.5874338 Z" id="Combined-Shape" fill="#FFFFFF" fill-rule="nonzero"></path>
            <rect id="Rectangle" x="0" y="0" width="44" height="44"></rect>
        </g>
    </g>
</svg>