<svg width="30px" height="40px" viewBox="0 0 30 40" version="1.1" xmlns="http://www.w3.org/2000/svg" xmlns:xlink="http://www.w3.org/1999/xlink">
    <!-- Generator: Sketch 60 (88103) - https://sketch.com -->
    <title>Logo Dark</title>
    <desc>Created with Sketch.</desc>
    <g id="Page-1" stroke="none" stroke-width="1" fill="none" fill-rule="evenodd">
        <g id="Desktop-HD-Copy-5" transform="translate(-135.000000, -24.000000)" fill="#FFFFFF">
            <g id="Logo-/-Dark" transform="translate(135.000000, 24.000000)">
                <path d="M0,40 L9.80163066,40 C12.5754531,40 15.1853286,39.6464682 17.6313356,38.9393939 C18.1939286,38.7767636 18.7405118,38.5907555 19.271086,38.3813694 L4.83399176,21.040404 L0,26.3585859 L0,40 Z M24.6142279,34.9886864 C26.1949178,33.4700856 27.4606194,31.55468 28.4113642,29.2424242 C29.47046,26.6666538 30,23.535372 30,19.8484848 C30,16.4141242 29.5208924,13.4469822 28.5626629,10.9469697 C27.6044333,8.4469572 26.2553672,6.38889697 24.5154241,4.77272727 C23.7137981,4.02812613 22.8318908,3.371972 21.8696961,2.80426137 L8.78288644,16.8131313 L24.6142281,34.9886864 L24.6142279,34.9886864 Z M16.40274,0.698597187 C14.3748952,0.232863933 12.1745382,0 9.80163066,0 L0,0 L0,18.790404 L16.40274,0.698597187 Z" id="Shape-Copy"></path>
            </g>
        </g>
    </g>
</svg>