<?xml version="1.0" encoding="UTF-8"?>
<svg width="203px" height="47px" viewBox="0 0 203 47" version="1.1" xmlns="http://www.w3.org/2000/svg" xmlns:xlink="http://www.w3.org/1999/xlink">
    <!-- Generator: Sketch 60 (88103) - https://sketch.com -->
    <title>Bevapp Logo</title>
    <desc>Created with Sketch.</desc>
    <g id="Page-1" stroke="none" stroke-width="1" fill="none" fill-rule="evenodd">
        <g id="Desktop-HD-Copy-5" transform="translate(-133.000000, -3323.000000)" fill="#FFFFFF">
            <g id="Group-6" transform="translate(135.000000, 3324.000000)">
                <g id="Group-5">
                    <g id="Bevapp-Logo">
                        <g id="Group-24">
                            <path d="M3.46716702,4.32457966 L0,4.32457966 L0,1.85515516 C1.07317611,1.3338296 2.31831689,1.07317073 3.7354597,1.07317073 C5.15260251,1.07317073 6.1088156,1.40928348 6.60412765,2.08151907 C7.0994397,2.75375466 7.34709201,3.7758118 7.34709201,5.14772116 L7.34709201,14.0376494 C8.66792414,12.5285491 10.6353842,11.7740102 13.2495311,11.7740102 C15.4234006,11.7740102 17.4321361,12.5148302 19.2757976,13.9964923 C20.211387,14.7647615 20.9612232,15.8554131 21.5253286,17.2684798 C22.0894339,18.6815464 22.3714824,20.3209535 22.3714824,22.1867502 C22.3714824,24.052547 22.0550378,25.7193918 21.4221391,27.1873348 C20.7892403,28.6552779 19.9362157,29.8145239 18.8630396,30.6651077 C16.68917,32.3937135 14.1576131,33.2580034 11.2682928,33.2580034 C9.91994333,33.2580034 8.59225178,33.0590795 7.28517831,32.6612258 C5.97810485,32.2633721 5.0081333,31.8586649 4.37523457,31.4470921 L3.46716702,30.8708931 L3.46716702,4.32457966 Z M11.2682928,30.0477516 C13.497197,30.0477516 15.2376424,29.3961044 16.4896812,28.0927905 C17.74172,26.7894766 18.36773,24.9442862 18.36773,22.5571639 C18.36773,20.1700416 17.7623577,18.3111323 16.5515949,16.9803802 C15.3408321,15.6496282 14.0475367,14.9842621 12.6716699,14.9842621 C10.387731,14.9842621 8.61288947,15.6564876 7.34709201,17.0009588 L7.34709201,29.3480813 L7.84240158,29.4715525 C9.3008204,29.8556871 10.4427727,30.0477516 11.2682928,30.0477516 Z M38.7992496,33.2580034 C35.6897906,33.2580034 33.1651129,32.3731351 31.2251407,30.6033721 C29.2851685,28.833609 28.315197,26.2475986 28.315197,22.8452634 C28.315197,19.4429282 29.3058062,16.7471668 31.2870544,14.7578982 C33.2683026,12.7686296 35.5797242,11.7740102 38.2213884,11.7740102 C44.4953411,11.7740102 47.6322703,15.47811 47.6322703,22.8864205 L32.3189494,22.8864205 L32.3189494,23.0922059 C32.3189494,25.0403172 33.0068724,26.6865837 34.3827392,28.0310549 C35.7586061,29.3755261 37.6297568,30.0477516 39.9962477,30.0477516 C41.0143892,30.0477516 41.9774815,29.931141 42.8855536,29.6979164 C43.7936257,29.4646918 44.4540318,29.2246113 44.8667919,28.9776676 L45.4446531,28.648411 L46.6416512,30.7885789 C46.5590992,30.8434553 46.4421523,30.9326281 46.2908069,31.0560999 C46.1394616,31.1795717 45.8161377,31.3784956 45.3208257,31.6528775 C44.8255136,31.9272594 44.2889336,32.1741993 43.7110695,32.3937048 C42.2526507,32.9699068 40.6153938,33.2580034 38.7992496,33.2580034 Z M43.7936211,20.2523677 C43.6560345,18.5512001 43.0988168,17.2547652 42.1219513,16.3630241 C41.1450859,15.471283 39.8793074,15.0254192 38.3245779,15.0254192 C36.7698484,15.0254192 35.4834323,15.4575641 34.4652908,16.321867 C33.4471494,17.1861699 32.7867432,18.4963237 32.4840525,20.2523677 L43.7936211,20.2523677 Z M51.8011256,12.3090522 L62.326454,12.3090522 L62.326454,14.1199635 L59.5196998,15.1077333 L64.8855535,28.7718822 L70.0450282,15.1077333 L67.238274,14.1199635 L67.238274,12.3090522 L77.5572234,12.3090522 L77.5572234,14.1199635 L74.2551596,15.1900475 L66.7429644,32.8464327 L62.6153846,32.8464327 L55.1031894,15.1900475 L51.8011256,14.1199635 L51.8011256,12.3090522 Z M102.570357,30.0477516 L102.570357,32.5171761 C101.49718,33.0385016 100.313953,33.2991605 99.020638,33.2991605 C97.7273232,33.2991605 96.798627,33.0522205 96.2345216,32.5583331 C95.6704162,32.0644458 95.3470924,31.3510636 95.2645404,30.4181652 C93.7510869,32.3388383 91.7629892,33.2991605 89.3001876,33.2991605 C86.837386,33.2991605 84.9731144,32.8052805 83.707317,31.8175058 C82.4415195,30.829731 81.8086303,29.4441234 81.8086303,27.6606412 C81.8086303,24.2308678 84.2026026,22.255348 88.9906191,21.7340224 L95.2232646,21.0755092 L95.2232646,19.881954 C95.2232646,18.2905392 94.8930615,17.083277 94.2326454,16.2601314 C93.5722293,15.4369858 92.5265863,15.0254192 91.0956848,15.0254192 C88.4540205,15.0254192 86.3077005,15.3135158 84.6566603,15.8897177 L83.8311444,16.1778173 L83.08818,13.5437645 C83.8586654,13.1047535 85.0281347,12.7000463 86.5966228,12.3296308 C88.165111,11.9592152 89.6235079,11.7740102 90.9718574,11.7740102 C93.9162123,11.7740102 96.0074985,12.357063 97.2457786,13.5231859 C98.4840588,14.6893089 99.1031895,16.328716 99.1031895,18.4414564 L99.1031895,30.0477516 L102.570357,30.0477516 Z M89.1969981,24.4092323 C88.1513393,24.5464232 87.3189524,24.8619576 86.6998123,25.355845 C86.0806722,25.8497324 85.7711069,26.5150984 85.7711069,27.3519631 C85.7711069,28.1888279 86.1081892,28.8473345 86.7823639,29.3275027 C87.4565386,29.807671 88.3989933,30.0477516 89.6097561,30.0477516 C91.8936949,30.0477516 93.7648457,29.4304016 95.2232646,28.1956832 L95.2232646,23.7507191 L89.1969981,24.4092323 Z M117.470919,44 L106.615384,44 L106.615384,42.2302458 L110.123827,40.8720623 L110.123827,14.8607909 L106.65666,14.8607909 L106.65666,12.5971517 C107.729836,12.0758262 108.906185,11.8151673 110.185741,11.8151673 C111.465297,11.8151673 112.380235,12.0483884 112.930581,12.5148376 C113.480928,12.9812868 113.811131,13.6672312 113.921201,14.5726913 C115.26955,12.7068946 117.278286,11.7740102 119.947467,11.7740102 C122.121337,11.7740102 124.130072,12.5148302 125.973734,13.9964923 C126.909323,14.7647615 127.659159,15.8554131 128.223265,17.2684798 C128.78737,18.6815464 129.069418,20.3209535 129.069418,22.1867502 C129.069418,24.052547 128.752974,25.7193918 128.120075,27.1873348 C127.487176,28.6552779 126.634152,29.8145239 125.560976,30.6651077 C123.387106,32.3937135 120.855549,33.2580034 117.966229,33.2580034 C116.810501,33.2580034 115.489688,33.065939 114.003752,32.6818044 L114.003752,40.8720623 L117.470919,42.2302458 L117.470919,44 Z M117.966229,30.0065945 C120.195133,30.0065945 121.935578,29.3480879 123.187617,28.0310549 C124.439656,26.7140219 125.065666,24.8756909 125.065666,22.5160068 C125.065666,20.1563227 124.460294,18.3111323 123.249531,16.9803802 C122.038768,15.6496282 120.745473,14.9842621 119.369606,14.9842621 C116.975598,14.9842621 115.186998,15.7388009 114.003752,17.2479012 L114.003752,29.2657671 C115.544723,29.7596545 116.865535,30.0065945 117.966229,30.0065945 Z M145.084428,44 L134.228893,44 L134.228893,42.2302458 L137.737336,40.8720623 L137.737336,14.8607909 L134.270169,14.8607909 L134.270169,12.5971517 C135.343345,12.0758262 136.519693,11.8151673 137.799249,11.8151673 C139.078805,11.8151673 139.993743,12.0483884 140.54409,12.5148376 C141.094437,12.9812868 141.42464,13.6672312 141.534709,14.5726913 C142.883059,12.7068946 144.891794,11.7740102 147.560976,11.7740102 C149.734845,11.7740102 151.74358,12.5148302 153.587242,13.9964923 C154.522831,14.7647615 155.272668,15.8554131 155.836773,17.2684798 C156.400878,18.6815464 156.682927,20.3209535 156.682927,22.1867502 C156.682927,24.052547 156.366482,25.7193918 155.733583,27.1873348 C155.100685,28.6552779 154.24766,29.8145239 153.174484,30.6651077 C151.000614,32.3937135 148.469058,33.2580034 145.579737,33.2580034 C144.424009,33.2580034 143.103197,33.065939 141.617261,32.6818044 L141.617261,40.8720623 L145.084428,42.2302458 L145.084428,44 Z M145.579737,30.0065945 C147.808641,30.0065945 149.549087,29.3480879 150.801126,28.0310549 C152.053164,26.7140219 152.679174,24.8756909 152.679174,22.5160068 C152.679174,20.1563227 152.073802,18.3111323 150.863039,16.9803802 C149.652277,15.6496282 148.358981,14.9842621 146.983114,14.9842621 C144.589106,14.9842621 142.800506,15.7388009 141.617261,17.2479012 L141.617261,29.2657671 C143.158231,29.7596545 144.479044,30.0065945 145.579737,30.0065945 Z" id="bevapp-copy" stroke="#FFFFFF" stroke-width="2.23219516" fill-rule="nonzero"></path>
                            <path d="M170.157178,5.45472522 L170.157178,8.54930236 C170.155675,8.88140094 170.294582,9.19824201 170.538749,9.41965097 L170.538749,12.7559957 C169.763115,13.0353913 169.059171,13.3823214 168.547423,13.9164592 C167.840758,14.6540442 167.486178,15.6631409 167.486178,16.6725702 L167.486178,18.2198588 C166.853997,18.2199229 166.341463,18.7394421 166.341463,19.3803223 L166.341463,36.4004927 C166.341463,37.0413806 166.853989,37.5609756 167.486178,37.5609756 L199.538179,37.5609756 C200.170368,37.5609756 200.68291,37.0413806 200.68291,36.4004927 L200.68291,19.3803223 C200.686039,18.7838211 200.242628,18.2820402 199.65742,18.2198588 C199.6177,18.217759 199.577899,18.217759 199.538179,18.2198588 L199.538179,16.6725702 C199.538179,15.6631409 199.183599,14.6540442 198.476934,13.9164592 C197.965186,13.3823214 197.261242,13.0353913 196.485608,12.7559957 L196.485608,9.41965097 C196.729775,9.19824201 196.868682,8.88140094 196.867179,8.54930236 L196.867179,5.45472522 C196.870327,4.85822247 196.426914,4.35643931 195.841706,4.29425782 C195.801986,4.29215796 195.762185,4.29215796 195.722465,4.29425782 L191.143608,4.29425782 C190.511425,4.2943219 189.998956,4.81384344 189.998893,5.45472522 L189.998893,8.54930236 C189.99739,8.88140094 190.136297,9.19824201 190.380465,9.41965097 L190.380465,12.7559957 C189.644253,13.0211903 188.976593,13.3547088 188.472607,13.8439305 C187.968621,13.3547088 187.300961,13.0211903 186.56475,12.7559957 L186.56475,9.41965097 C186.808918,9.19824201 186.947825,8.88140094 186.946322,8.54930236 L186.946322,5.45472522 C186.949469,4.85822247 186.506057,4.35643931 185.920848,4.29425782 C185.881128,4.29215796 185.841327,4.29215796 185.801607,4.29425782 L181.22275,4.29425782 C180.590568,4.2943219 180.078098,4.81384344 180.078036,5.45472522 L180.078036,8.54930236 C180.076532,8.88140094 180.215439,9.19824201 180.459607,9.41965097 L180.459607,12.7559957 C179.723396,13.0211903 179.055736,13.3547088 178.55175,13.8439305 C178.047764,13.3547088 177.380104,13.0211903 176.643893,12.7559957 L176.643893,9.41965097 C176.88806,9.19824201 177.026967,8.88140094 177.025464,8.54930236 L177.025464,5.45472522 C177.025401,4.81384344 176.512932,4.2943219 175.88075,4.29425782 L171.301892,4.29425782 C171.262172,4.29215796 171.222371,4.29215796 171.182651,4.29425782 C170.597443,4.35643931 170.154031,4.85822247 170.157178,5.45472522 Z M172.446607,6.61519261 L174.736035,6.61519261 L174.736035,7.38883496 L172.446607,7.38883496 L172.446607,6.61519261 Z M182.367464,6.61519261 L184.656893,6.61519261 L184.656893,7.38883496 L182.367464,7.38883496 L182.367464,6.61519261 Z M192.288322,6.61519261 L194.577751,6.61519261 L194.577751,7.38883496 L192.288322,7.38883496 L192.288322,6.61519261 Z M172.828178,9.70976975 L174.354464,9.70976975 L174.354464,13.5779931 C174.358255,14.1180188 174.728971,14.5840321 175.248772,14.7021942 C176.146482,14.906241 176.692402,15.2259801 176.989692,15.5362804 C177.286982,15.8465768 177.407035,16.1592638 177.407035,16.6725702 L177.407035,18.2198588 L169.775606,18.2198588 L169.775606,16.6725702 C169.775606,16.1592638 169.89566,15.8465768 170.19295,15.5362804 C170.49024,15.2259801 171.03616,14.906241 171.93387,14.7021942 C172.453671,14.5840321 172.824387,14.1180188 172.828178,13.5779931 L172.828178,9.70976975 Z M182.749036,9.70976975 L184.275321,9.70976975 L184.275321,13.5779931 C184.279113,14.1180188 184.649829,14.5840321 185.16963,14.7021942 C186.06734,14.906241 186.613259,15.2259801 186.910549,15.5362804 C187.207839,15.8465768 187.327893,16.1592638 187.327893,16.6725702 L187.327893,18.2198588 L179.696464,18.2198588 L179.696464,16.6725702 C179.696464,16.1592638 179.816518,15.8465768 180.113808,15.5362804 C180.411098,15.2259801 180.957017,14.906241 181.854728,14.7021942 C182.374528,14.5840321 182.745245,14.1180188 182.749036,13.5779931 L182.749036,9.70976975 Z M192.669893,9.70976975 L194.196179,9.70976975 L194.196179,13.5779931 C194.19997,14.1180188 194.570686,14.5840321 195.090487,14.7021942 C195.988197,14.906241 196.534117,15.2259801 196.831407,15.5362804 C197.128697,15.8465768 197.248751,16.1592638 197.248751,16.6725702 L197.248751,18.2198588 L189.617322,18.2198588 L189.617322,16.6725702 C189.617322,16.1592638 189.737376,15.8465768 190.034666,15.5362804 C190.331955,15.2259801 190.877875,14.906241 191.775585,14.7021942 C192.295386,14.5840321 192.666102,14.1180188 192.669893,13.5779931 L192.669893,9.70976975 L192.669893,9.70976975 Z M168.630892,20.5408052 L178.468281,20.5408052 L178.55175,20.5408052 L188.591848,20.5408052 L193.433036,20.5408052 L198.393465,20.5408052 L198.393465,35.2400486 L168.630892,35.2400486 L168.630892,20.5408052 L168.630892,20.5408052 Z M178.933321,21.7012494 C177.473387,21.7012494 176.262321,22.9290038 176.262321,24.409017 C176.262321,25.8890301 177.473388,27.1167845 178.933321,27.1167845 L188.091036,27.1167845 C189.55097,27.1167845 190.762036,25.8890301 190.762036,24.409017 C190.762036,22.9290038 189.550969,21.7012494 188.091036,21.7012494 L178.933321,21.7012494 Z M178.933321,24.0221764 L188.091036,24.0221764 C188.322226,24.0221764 188.472607,24.1746303 188.472607,24.409017 C188.472607,24.6434036 188.322226,24.7958188 188.091036,24.7958188 L178.933321,24.7958188 C178.702132,24.7958188 178.55175,24.6434036 178.55175,24.409017 C178.55175,24.1746303 178.702131,24.0221764 178.933321,24.0221764 Z" id="Shape-Copy" fill-rule="nonzero" transform="translate(183.512195, 20.926829) rotate(15.000000) translate(-183.512195, -20.926829) "></path>
                        </g>
                    </g>
                </g>
            </g>
        </g>
    </g>
</svg>