<?xml version="1.0" encoding="UTF-8"?>
<svg width="334px" height="44px" viewBox="0 0 334 44" version="1.1" xmlns="http://www.w3.org/2000/svg" xmlns:xlink="http://www.w3.org/1999/xlink">
    <!-- Generator: Sketch 60 (88103) - https://sketch.com -->
    <title>Logo / Text / Dark</title>
    <desc>Created with Sketch.</desc>
    <g id="Page-1" stroke="none" stroke-width="1" fill="none" fill-rule="evenodd">
        <g id="Desktop-HD-Copy-5" transform="translate(-135.000000, -2333.000000)" fill="#FFFFFF">
            <g id="Group-8" transform="translate(135.000000, 2333.000000)">
                <g id="Group-2-Copy">
                    <g id="Group-7">
                        <g id="Logo-/-Text-/-Dark">
                            <g id="Logo-Dark">
                                <path d="M121.245589,18.754558 L118.196604,18.754558 L118.196604,17.9106029 L121.245589,17.9106029 L121.245589,8.06445996 C121.245589,5.09497342 121.659935,3.0085497 122.488637,1.80512621 C123.31734,0.60170272 124.622918,0 126.40541,0 C126.999574,0 127.625001,0.125029137 128.281709,0.375091161 L127.859542,1.03150069 C127.48428,0.812696421 127.01521,0.703295927 126.452318,0.703295927 C124.951271,0.703295927 123.864593,1.24248408 123.192249,2.32087656 C122.519905,3.39926904 122.183739,5.25126312 122.183739,7.87691438 L122.183739,17.9106029 L128.234801,17.9106029 L128.234801,18.754558 L122.183739,18.754558 L122.183739,35.75 L121.245589,35.75 L121.245589,18.754558 Z" id="Path" fill-rule="nonzero"></path>
                                <path d="M143.900623,11.2374574 C143.900623,10.9561376 144.002255,10.7138937 144.205521,10.5107183 C144.408788,10.3075429 144.666777,10.2059567 144.979495,10.2059567 C145.260941,10.2059567 145.503293,10.3075429 145.70656,10.5107183 C145.909827,10.7138937 146.011459,10.9561376 146.011459,11.2374574 C146.011459,11.5187772 145.909827,11.7610211 145.70656,11.9641965 C145.503293,12.1673719 145.260941,12.2689581 144.979495,12.2689581 C144.698048,12.2689581 144.447878,12.1595576 144.228975,11.9407533 C144.010073,11.721949 143.900623,11.4875194 143.900623,11.2374574 Z" id="Path" fill-rule="nonzero"></path>
                                <polygon id="Path" fill-rule="nonzero" points="145.395887 17.05 145.395887 35.75 144.469287 35.75 144.469287 17.05"></polygon>
                                <path d="M170.661963,17.05 C172.288097,17.05 173.593675,17.5344879 174.578736,18.5034782 C175.563798,19.4724686 176.087593,20.7383886 176.150136,22.3012763 L176.150136,35.75 L175.211987,35.75 L175.211987,22.395049 C175.149443,21.0822234 174.719463,20.0116614 173.922032,19.183331 C173.124601,18.3550005 172.006651,17.9095842 170.568148,17.8470687 C169.254733,17.8470687 168.027333,18.1440129 166.885913,18.7379102 C165.744492,19.3318075 164.821988,20.1601256 164.118372,21.2228892 C163.414757,22.2856528 163.062954,23.4890582 163.062954,24.8331416 L163.062954,35.75 L162.124805,35.75 L162.124805,17.3782048 L162.828417,17.3782048 L162.96914,22.1137307 C163.532032,20.550843 164.517079,19.3161803 165.92431,18.4097055 C167.33154,17.5032306 168.910743,17.05 170.661963,17.05 Z" id="Path" fill-rule="nonzero"></path>
                                <polygon id="Path" fill-rule="nonzero" points="192.937233 17.05 192.937233 35.75 192.010632 35.75 192.010632 17.05"></polygon>
                                <path d="M191.441968,11.2374574 C191.441968,10.9561376 191.5436,10.7138937 191.746867,10.5107183 C191.950133,10.3075429 192.208122,10.2059567 192.52084,10.2059567 C192.802286,10.2059567 193.044639,10.3075429 193.247905,10.5107183 C193.451172,10.7138937 193.552804,10.9561376 193.552804,11.2374574 C193.552804,11.5187772 193.451172,11.7610211 193.247905,11.9641965 C193.044639,12.1673719 192.802286,12.2689581 192.52084,12.2689581 C192.239394,12.2689581 191.989223,12.1595576 191.77032,11.9407533 C191.551418,11.721949 191.441968,11.4875194 191.441968,11.2374574 Z" id="Path" fill-rule="nonzero"></path>
                                <path d="M215.154323,35.7125805 C214.153626,35.7125805 213.145126,35.5250368 212.128792,35.1499437 C211.112459,34.7748507 210.291586,34.2122196 209.66615,33.4620335 L210.22904,32.8993968 C210.698117,33.4932941 211.378268,33.977782 212.269515,34.352875 C213.160761,34.7279681 214.122354,34.9155118 215.154323,34.9155118 C216.436467,34.9155118 217.530964,34.5873103 218.437846,33.9308975 C219.344728,33.2744847 219.798162,32.2273656 219.798162,30.789509 C219.798162,29.9142919 219.563627,29.2031887 219.09455,28.656178 C218.625473,28.1091673 218.078225,27.6950083 217.452789,27.4136886 C216.827353,27.1323688 215.920485,26.8041673 214.732156,26.4290743 C213.324925,25.9289502 212.246065,25.3585048 211.495541,24.7177208 C210.745018,24.0769369 210.369762,23.1314041 210.369762,21.8810939 C210.369762,20.474495 210.84665,19.3726758 211.80044,18.5756031 C212.75423,17.7785304 213.887815,17.38 215.201231,17.38 C216.014298,17.38 216.866441,17.5519151 217.757688,17.8957503 C218.648934,18.2395856 219.407264,18.7553308 220.032699,19.4430014 L219.516717,20.0525245 C219.04764,19.4586272 218.39876,19.0053966 217.570058,18.6928191 C216.741355,18.3802415 215.96739,18.2239551 215.248138,18.2239551 C214.278713,18.2239551 213.371844,18.5287136 212.527506,19.1382398 C211.683167,19.747766 211.261004,20.6307843 211.261004,21.7873211 C211.261004,22.818827 211.597171,23.6002591 212.269515,24.1316409 C212.941858,24.6630227 213.934723,25.1631392 215.248138,25.6320055 L216.087063,25.9249769 C216.965074,26.2394024 217.662667,26.5168348 218.179855,26.757279 C218.852198,27.0698566 219.438536,27.5309015 219.938885,28.1404277 C220.439233,28.7499539 220.689404,29.5548289 220.689404,30.555077 C220.689404,32.1492224 220.212516,33.4073281 219.258726,34.3294318 C218.304937,35.2515355 216.936816,35.7125805 215.154323,35.7125805 Z" id="Path" fill-rule="nonzero"></path>
                                <path d="M244.351048,17.207307 C245.977182,17.207307 247.28276,17.6917949 248.267821,18.6607853 C249.252883,19.6297756 249.776678,20.8956956 249.839221,22.4585833 L249.839221,35.75 L248.901072,35.75 L248.901072,22.552356 C248.838528,21.2395304 248.408548,20.1689684 247.611117,19.340638 C246.813686,18.5123075 245.695736,18.0668912 244.257233,18.0043757 C242.97509,18.0043757 241.755508,18.3091342 240.598451,18.9186604 C239.441395,19.5281866 238.511073,20.3721333 237.807457,21.4505258 C237.103842,22.5289182 236.75204,23.7088807 236.75204,24.9904486 L236.75204,35.75 L235.81389,35.75 L235.81389,0 L236.705132,0 L236.705132,21.8021737 C237.299296,20.4580903 238.292161,19.3562711 239.683756,18.4966829 C241.075351,17.6370947 242.631099,17.207307 244.351048,17.207307 Z" id="Path" fill-rule="nonzero"></path>
                                <path d="M275.164179,17.325 C277.040487,17.325 278.674414,17.8720025 280.066009,18.9660238 C281.457604,20.0600452 282.513011,21.5135089 283.232262,23.3264586 L267.471355,29.7030083 C268.096791,31.2346382 269.081838,32.4927439 270.426525,33.4773631 C271.771213,34.4619823 273.350415,34.9542846 275.164179,34.9542846 C276.258692,34.9542846 277.298463,34.7589265 278.283525,34.3682046 C279.268587,33.9774827 280.136366,33.4226659 280.886889,32.7037376 L281.496686,33.3601471 C280.621076,34.1103332 279.643847,34.6964073 278.56497,35.1183869 C277.486093,35.5403666 276.352507,35.7513533 275.164179,35.7513533 C273.44423,35.7513533 271.880664,35.3450086 270.473433,34.532307 C269.066202,33.7196054 267.95607,32.6099718 267.143003,31.203373 C266.329936,29.7967741 265.923409,28.2495385 265.923409,26.5616198 C265.923409,24.8737012 266.337754,23.3264656 267.166457,21.9198667 C267.995159,20.5132678 269.113109,19.3958199 270.52034,18.5674895 C271.927571,17.739159 273.475502,17.325 275.164179,17.325 Z M275.117271,18.1689551 C273.616225,18.1689551 272.232469,18.5440425 270.965961,19.2942286 C269.699453,20.0444147 268.698771,21.0602764 267.963884,22.3418443 C267.228996,23.6234122 266.861558,25.0299899 266.861558,26.5616198 C266.861558,27.4368369 266.971008,28.218269 267.18991,28.9059396 L282.059576,22.904481 C281.340324,21.4978821 280.378731,20.3569913 279.174767,19.4817742 C277.970803,18.6065571 276.618318,18.1689551 275.117271,18.1689551 Z" id="Combined-Shape" fill-rule="nonzero"></path>
                                <path d="M0.940068563,0 L0.940068563,22.778135 C1.6607914,21.1118173 2.78102857,19.7756392 4.30081368,18.7695606 C5.82059879,17.7634819 7.5205391,17.2604502 9.40068563,17.2604502 C11.0614817,17.2604502 12.5969117,17.6691635 14.0070216,18.4866024 C15.4171315,19.3040412 16.5295348,20.420143 17.344265,21.8349411 C18.1589952,23.2497391 18.5663541,24.8059937 18.5663541,26.5037513 C18.5663541,28.4530287 18.1589952,30.1271813 17.344265,31.5262594 C16.5295348,32.9253375 15.4249653,33.9785602 14.0305233,34.6859593 C12.6360813,35.3933583 11.0771499,35.7470525 9.3536822,35.7470525 C7.53620723,35.7470525 5.86760221,35.2361609 4.3478171,34.2143623 C2.828032,33.1925637 1.69212717,31.8799651 0.940068563,30.2765273 L0.940068563,35.7470525 L-1.42108547e-14,35.7470525 L-1.42108547e-14,0 L0.940068563,0 Z M9.30667878,18.0621651 C7.17584605,18.0621651 5.33489685,18.7223943 3.78377597,20.0428725 C2.23265508,21.3633507 1.28476209,23.0296434 0.940068563,25.0418006 L0.940068563,27.2583065 C0.940068563,28.5473448 1.32392605,29.7892045 2.09165255,30.9839228 C2.85937905,32.1786412 3.87777648,33.1375455 5.14687538,33.8606645 C6.41597429,34.5837835 7.80256155,34.9453376 9.30667878,34.9453376 C11.8762124,34.9453376 13.9051734,34.1672104 15.3936227,32.6109325 C16.8820721,31.0546546 17.6262856,29.0189479 17.6262856,26.5037513 C17.6262856,24.9946334 17.2815972,23.5955763 16.5922101,22.306538 C15.9028231,21.0174998 14.9235948,19.9878567 13.6544959,19.2175777 C12.385397,18.4472988 10.9361391,18.0621651 9.30667878,18.0621651 Z" id="Combined-Shape" fill-rule="nonzero"></path>
                                <path d="M299.174006,0 L299.174006,22.778135 C299.894729,21.1118173 301.014966,19.7756392 302.534751,18.7695606 C304.054536,17.7634819 305.754477,17.2604502 307.634623,17.2604502 C309.295419,17.2604502 310.830849,17.6691635 312.240959,18.4866024 C313.651069,19.3040412 314.763472,20.420143 315.578202,21.8349411 C316.392933,23.2497391 316.800292,24.8059937 316.800292,26.5037513 C316.800292,28.4530287 316.392933,30.1271813 315.578202,31.5262594 C314.763472,32.9253375 313.658903,33.9785602 312.264461,34.6859593 C310.870019,35.3933583 309.311087,35.7470525 307.58762,35.7470525 C305.770145,35.7470525 304.10154,35.2361609 302.581755,34.2143623 C301.061969,33.1925637 299.926065,31.8799651 299.174006,30.2765273 L299.174006,35.7470525 L298.233937,35.7470525 L298.233937,0 L299.174006,0 Z M307.540616,18.0621651 C305.409783,18.0621651 303.568834,18.7223943 302.017713,20.0428725 C300.466592,21.3633507 299.518699,23.0296434 299.174006,25.0418006 L299.174006,27.2583065 C299.174006,28.5473448 299.557863,29.7892045 300.32559,30.9839228 C301.093316,32.1786412 302.111714,33.1375455 303.380813,33.8606645 C304.649912,34.5837835 306.036499,34.9453376 307.540616,34.9453376 C310.11015,34.9453376 312.139111,34.1672104 313.62756,32.6109325 C315.116009,31.0546546 315.860223,29.0189479 315.860223,26.5037513 C315.860223,24.9946334 315.515535,23.5955763 314.826148,22.306538 C314.13676,21.0174998 313.157532,19.9878567 311.888433,19.2175777 C310.619334,18.4472988 309.170076,18.0621651 307.540616,18.0621651 Z" id="Combined-Shape-Copy" fill-rule="nonzero" transform="translate(307.517114, 17.873526) scale(-1, 1) translate(-307.517114, -17.873526) "></path>
                                <path d="M30.4880751,17.2604502 C32.3055501,17.2604502 33.9663213,17.7713418 35.4704385,18.7931404 C36.9745557,19.814939 38.086959,21.1432573 38.8076819,22.778135 L38.9956956,17.6377278 L39.700747,17.6377278 L39.700747,35.7470525 L38.8076819,35.7470525 L38.8076819,30.3708467 C38.1496306,31.9428446 37.0450611,33.2318635 35.4939402,34.2379421 C33.9428193,35.2440208 32.2272113,35.7470525 30.3470648,35.7470525 C28.6862687,35.7470525 27.1508387,35.3383392 25.7407288,34.5209003 C24.3306189,33.7034614 23.2182156,32.5952196 22.4034854,31.1961415 C21.5887553,29.7970634 21.1813963,28.2486687 21.1813963,26.550911 C21.1813963,24.6330737 21.5965891,22.9746408 22.4269872,21.5755627 C23.2573852,20.1764846 24.3776224,19.1075421 25.7877323,18.3687031 C27.1978422,17.6298641 28.7646074,17.2604502 30.4880751,17.2604502 Z M30.4410717,18.0621651 C28.9056187,18.0621651 27.5033637,18.4079994 26.2342648,19.0996785 C24.9651659,19.7913575 23.9624362,20.7817013 23.2260454,22.0707395 C22.4896547,23.3597778 22.1214649,24.8374336 22.1214649,26.5037513 C22.1214649,28.0443092 22.4974885,29.4590861 23.2495472,30.7481243 C24.0016058,32.0371626 25.0121694,33.0589459 26.2812683,33.8135048 C27.5503672,34.5680638 28.9369544,34.9453376 30.4410717,34.9453376 C31.9765247,34.9453376 33.3787796,34.5995033 34.6478785,33.9078242 C35.9169774,33.2161452 36.927541,32.2572409 37.6795996,31.0310825 C38.4316582,29.8049242 38.8076819,28.4373066 38.8076819,26.9281886 L38.8076819,24.9946409 C38.4316526,23.0453636 37.4524243,21.4026505 35.8699676,20.0664523 C34.287511,18.7302541 32.4778971,18.0621651 30.4410717,18.0621651 Z" id="Combined-Shape" fill-rule="nonzero"></path>
                                <path d="M46.9221252,22.4480171 C47.4861691,20.8760193 48.4810651,19.6341596 49.9068428,18.7224009 C51.3326206,17.8106421 52.9228874,17.3390498 54.6776908,17.3076099 L54.6306874,18.1564845 C53.2519133,18.2193644 51.9828334,18.549479 50.8234097,19.1468382 C49.663986,19.7441973 48.7395945,20.5694838 48.0502074,21.6227224 C47.3608204,22.675961 47.016132,23.8628015 47.016132,25.1832797 L47.016132,35.7470525 L46.0760635,35.7470525 L46.0760635,17.6377278 L46.7811149,17.6377278 L46.9221252,22.4480171 Z" id="Path" fill-rule="nonzero"></path>
                                <path d="M65.3773226,17.2132905 C67.2574692,17.2132905 68.8947389,17.7634815 70.2891809,18.86388 C71.6836229,19.9642785 72.7411894,21.4262145 73.4619123,23.249732 L57.6687604,29.6634512 C58.2954759,31.2040091 59.282538,32.4694484 60.6299764,33.4598071 C61.9774147,34.4501657 63.5598477,34.9453376 65.3773226,34.9453376 C66.4740748,34.9453376 67.5159737,34.7488408 68.5030506,34.3558414 C69.4901275,33.9628419 70.3596823,33.404791 71.1117409,32.681672 L71.7227854,33.3419078 C70.8453837,34.0964668 69.8661554,34.6859571 68.7850712,35.1103966 C67.7039869,35.534836 66.5680821,35.7470525 65.3773226,35.7470525 C63.653855,35.7470525 62.0870897,35.3383392 60.6769798,34.5209003 C59.2668699,33.7034614 58.1544666,32.5873597 57.3397364,31.1725616 C56.5250063,29.7577636 56.1176473,28.201509 56.1176473,26.5037513 C56.1176473,24.8059937 56.5328401,23.2497391 57.3632381,21.8349411 C58.1936362,20.420143 59.3138734,19.2961814 60.7239832,18.4630225 C62.1340931,17.6298636 63.6851908,17.2132905 65.3773226,17.2132905 Z M65.3303192,18.0621651 C63.826202,18.0621651 62.4396147,18.4394389 61.1705158,19.1939979 C59.9014169,19.9485568 58.8986871,20.9703401 58.1622964,22.2593783 C57.4259057,23.5484166 57.0577159,24.9631934 57.0577159,26.5037513 C57.0577159,27.3840701 57.1673894,28.1700573 57.3867399,28.8617363 L72.2868266,22.8252947 C71.5661037,21.4104967 70.6025431,20.2629555 69.3961157,19.3826367 C68.1896884,18.5023179 66.8344364,18.0621651 65.3303192,18.0621651 Z" id="Combined-Shape" fill-rule="nonzero"></path>
                                <polygon id="Path" fill-rule="nonzero" points="78.4271259 0 78.4271259 35.75 77.4870573 35.75 77.4870573 0"></polygon>
                                <polygon id="Path" fill-rule="nonzero" points="99.0444811 17.05 87.622648 44 86.4945657 44 90.2078366 35.5584137 81.9822366 17.05 82.9693086 17.05 90.6778708 34.4265809 98.0104056 17.05"></polygon>
                                <ellipse id="Oval" cx="332.349259" cy="34.1" rx="1.65074135" ry="1.65"></ellipse>
                            </g>
                        </g>
                    </g>
                </g>
            </g>
        </g>
    </g>
</svg>